<svg id="Calque_1" data-name="Calque 1" xmlns="http://www.w3.org/2000/svg" xmlns:xlink="http://www.w3.org/1999/xlink" viewBox="0 0 223.21 239.15"><defs><style>.cls-1{fill:none;}.cls-2{clip-path:url(#clip-path);}.cls-3{clip-path:url(#clip-path-2);}.cls-4{fill:#8f9193;}</style><clipPath id="clip-path" transform="translate(-249.4 -43.42)"><path class="cls-1" d="M412.21,143.07H400.13v13.29h9.74c15.75,0,10.84,29.39-9.74,41.55v14.35c20.93-8.06,32.62-29.39,32.62-46.26C432.75,153.26,426.19,143.07,412.21,143.07Zm-18.6,81.21V148.71a30.26,30.26,0,0,1-13,1.94v73.63a21.61,21.61,0,0,0,.54,5.25H314.8a22.12,22.12,0,0,0,.54-5.25V149.81a29.52,29.52,0,0,1-12.84-1.54v76c0,4.41-2.39,8-6.72,8v10.45H400.13V232.27C395.8,232.27,393.61,228.69,393.61,224.28Zm-52.18-8.14h-13v-66.9c3.94,1.3,9.65,1.16,13-1ZM359.65,83.28a28.31,28.31,0,0,0-17.92,6.41A25,25,0,0,0,317,95c-14-2.25-27.73,7-27.73,24.37,0,12.9,11.47,22.11,24.13,22.11a22.63,22.63,0,0,0,11.29-3,25,25,0,0,0,20.27-.83,28.26,28.26,0,0,0,25.81,1.84,22.49,22.49,0,0,0,10.91,2.79A23.41,23.41,0,0,0,383,95.45,28.58,28.58,0,0,0,359.65,83.28Zm0,10.47a18.43,18.43,0,0,1,17.51,13,12.4,12.4,0,0,1,4.49-.84,12.92,12.92,0,0,1,0,25.83,12.61,12.61,0,0,1-10-5,18.15,18.15,0,0,1-26.25-2.43,14.91,14.91,0,0,1-21.71,1.34A12.61,12.61,0,0,1,313.38,131c-19.44,0-17.75-25.83,0-25.83a12.43,12.43,0,0,1,7,2.16,15,15,0,0,1,23.51-4.52A18.32,18.32,0,0,1,359.65,93.75Z"/></clipPath><clipPath id="clip-path-2" transform="translate(-249.4 -43.42)"><rect class="cls-1" x="-2516.78" y="-1136.39" width="11479.23" height="7174.52"/></clipPath></defs><title>beer</title><g class="cls-2"><g class="cls-3"><rect class="cls-4" width="223.21" height="239.15"/></g></g></svg>