<svg id="Calque_1" data-name="Calque 1" xmlns="http://www.w3.org/2000/svg" viewBox="0 0 216 192"><defs><style>.cls-1{fill:#333;fill-rule:evenodd;}</style></defs><title>burger</title><path class="cls-1" d="M640,187.12c-7.85-42.82-48.15-55-81-54.83-35.33.15-74.32,16-81,54.85,0,0,78.31,0,81,0,13,.08,21.8,15.29,31.57,15.23,8.71,0,20.56-15.21,33.44-15.23ZM572.5,141.4A4.57,4.57,0,1,1,568,146,4.54,4.54,0,0,1,572.5,141.4Zm-45,0A4.57,4.57,0,1,1,523,146,4.54,4.54,0,0,1,527.5,141.4Zm72,9.14a4.58,4.58,0,1,1-4.5,4.58A4.54,4.54,0,0,1,599.5,150.54Zm-45,0a4.58,4.58,0,1,1-4.5,4.58A4.54,4.54,0,0,1,554.5,150.54Zm-45,9.15a4.57,4.57,0,1,1-4.5,4.57A4.53,4.53,0,0,1,509.5,159.69Zm108,0a4.57,4.57,0,1,1-4.5,4.57A4.53,4.53,0,0,1,617.5,159.69Zm-36,0a4.57,4.57,0,1,1-4.5,4.57A4.53,4.53,0,0,1,581.5,159.69Zm-45,0a4.57,4.57,0,1,1-4.5,4.57A4.53,4.53,0,0,1,536.5,159.69Zm20.57,45.77-79-.07a9.15,9.15,0,0,0,0,18.29s9.26,0,17.95,0c13,.09,21.8,15.29,31.57,15.24,8.71,0,20.56-15.21,33.44-15.24,13.24,0,79.12,0,79.12,0a9.08,9.08,0,0,0,8.86-9.63,8.94,8.94,0,0,0-8.76-8.66l-14.22.07c-4.69,0-8.89,2.54-11.66,4.2-8,4.77-14.28,9.59-23.87,9.49-10.65-.11-16.4-5-23.13-9.35C564.75,208.13,561.68,205.44,557.07,205.46ZM563,242c-4.69,0-8.89,2.53-11.66,4.2-8,4.77-14.28,9.59-23.87,9.49-10.65-.11-16.4-5-23.13-9.36-2.6-1.66-5.67-4.36-10.28-4.33H477.32a9.14,9.14,0,0,0,.73,18.25H640.13a9.15,9.15,0,0,0,.54-18.26C640.45,242,577.51,241.9,563,242ZM478,278.53h0c.28,7.24,2.4,9,8.58,9.14,11.17.12,139.63,0,144.89-.08,6.11-.21,8.28-2.46,8.64-8.63C640,279,537.58,279.29,478,278.53Zm-17.9-84.48c.35-51.53,47.73-80.05,99.88-80.05,50.15,0,98.32,27.6,98,80.05a27.72,27.72,0,0,1,2.16,38.75,27.74,27.74,0,0,1-2.43,39c2.48,21.33-8.32,33.43-25.84,34.06-5.4.08-134.4.19-145.7.08-19.51-.62-28-14.16-25.91-34.22a27.7,27.7,0,0,1-2.34-38.93,27.68,27.68,0,0,1,2.15-38.75Z" transform="translate(-451 -114)"/></svg>