<svg id="Calque_1" data-name="Calque 1" xmlns="http://www.w3.org/2000/svg" xmlns:xlink="http://www.w3.org/1999/xlink" viewBox="0 0 260.19 92.56"><defs><style>.cls-1,.cls-2{fill:none;}.cls-1{clip-rule:evenodd;}.cls-3{clip-path:url(#clip-path);}.cls-4{clip-path:url(#clip-path-2);}.cls-16,.cls-5{fill:#53acfe;}.cls-6{clip-path:url(#clip-path-3);}.cls-7{fill:#fff;opacity:0.69;}.cls-8{clip-path:url(#clip-path-5);}.cls-9{fill:#fcd2a8;}.cls-10{clip-path:url(#clip-path-7);}.cls-11{fill:#93cdb9;}.cls-12{clip-path:url(#clip-path-9);}.cls-13{clip-path:url(#clip-path-11);}.cls-14{fill:#f7ac6c;}.cls-15{clip-path:url(#clip-path-13);}.cls-16{font-size:30px;font-family:Montserrat-Regular, Montserrat;letter-spacing:0.05em;}.cls-17{letter-spacing:0.04em;}.cls-18{letter-spacing:0.05em;}.cls-19{letter-spacing:0.01em;}.cls-20{letter-spacing:0.03em;}.cls-21{letter-spacing:0em;}</style><clipPath id="clip-path" transform="translate(-125.85 -23)"><path class="cls-1" d="M164.62,54.73l.21-14.68V37.18s.06-.83,1.53-1.76,13.08-5.11,13.08-5.11L185,28s2.11.23.77,2.53c-3.55,1.53-13,5.16-13,5.16l-4.2,1.62-.93.33-.11,17.06Z"/></clipPath><clipPath id="clip-path-2" transform="translate(-125.85 -23)"><rect class="cls-2" width="1440" height="900"/></clipPath><clipPath id="clip-path-3" transform="translate(-125.85 -23)"><path class="cls-1" d="M155,107.11v3.45h22.44v-3.45s-3.48,1.73-6.54,0-3.26-7.74-3.26-7.74l.43-12.5,27.23-43.5H137.42l27.46,43.07V99.15s-.87,7.11-3.92,8.39A6.94,6.94,0,0,1,155,107.11Z"/></clipPath><clipPath id="clip-path-5" transform="translate(-125.85 -23)"><polygon class="cls-1" points="148.62 54.76 150.48 57.14 181.99 57.14 183.84 54.76 148.62 54.76"/></clipPath><clipPath id="clip-path-7" transform="translate(-125.85 -23)"><polygon class="cls-1" points="151.9 58.87 150.48 57.14 181.99 57.14 175.86 66.21 156.49 66.21 151.9 58.87"/></clipPath><clipPath id="clip-path-9" transform="translate(-125.85 -23)"><path class="cls-1" d="M164.05,77.57l-7.56-11.36h19.37L169,77.57a3.56,3.56,0,0,1-2.61,1.3A2.92,2.92,0,0,1,164.05,77.57Z"/></clipPath><clipPath id="clip-path-11" transform="translate(-125.85 -23)"><path class="cls-1" d="M137.49,43.38,146.16,57l1.14,1.82a13.33,13.33,0,1,1,10.32-15.38Z"/></clipPath><clipPath id="clip-path-13" transform="translate(-125.85 -23)"><path class="cls-1" d="M137.49,43.38,146.16,57A11.51,11.51,0,0,1,133,47.75a11.38,11.38,0,0,1,9.12-13.15,11.51,11.51,0,0,1,13.47,8.78Z"/></clipPath></defs><title>logo</title><g class="cls-3"><g class="cls-4"><rect class="cls-5" x="33.77" width="31.57" height="36.73"/></g></g><g class="cls-6"><g class="cls-4"><rect class="cls-7" x="6.57" y="15.37" width="67.91" height="77.18"/></g></g><g class="cls-8"><g class="cls-4"><rect class="cls-9" x="17.77" y="26.76" width="45.23" height="12.38"/></g></g><g class="cls-10"><g class="cls-4"><rect class="cls-11" x="19.63" y="29.14" width="41.51" height="19.08"/></g></g><g class="cls-12"><g class="cls-4"><rect class="cls-5" x="25.64" y="38.21" width="29.37" height="22.66"/></g></g><g class="cls-13"><g class="cls-4"><rect class="cls-14" y="4.47" width="36.77" height="36.67"/></g></g><g class="cls-15"><g class="cls-4"><rect class="cls-9" x="1.97" y="6.38" width="32.76" height="32.75"/></g></g><g class="cls-4"><text class="cls-16" transform="translate(81.15 65)">O<tspan class="cls-17" x="26.58" y="0">P</tspan><tspan class="cls-18" x="49.23" y="0">L</tspan><tspan class="cls-19" x="68.37" y="0">A</tspan><tspan class="cls-20" x="90.06" y="0">Y</tspan><tspan x="110.07" y="0">NE</tspan><tspan class="cls-21" x="157.35" y="0">R</tspan></text></g></svg>